{
  "accessors": [
    {
      "bufferView": 2,
      "componentType": 5126,
      "count": 2451,
      "max": [
        86.809898376464844,
        180.52197265625,
        170.07585144042969
      ],
      "min": [
        -434.92132568359375,
        -170.64857482910156,
        -620.0947265625
      ],
      "type": "VEC3"
    },
    {
      "bufferView": 2,
      "byteOffset": 29412,
      "componentType": 5126,
      "count": 2451,
      "max": [
        0.99868786334991455,
        0.99865221977233887,
        0.99971771240234375
      ],
      "min": [
        -0.99939334392547607,
        -0.99868261814117432,
        -0.99162411689758301
      ],
      "type": "VEC3"
    },
    {
      "bufferView": 3,
      "componentType": 5126,
      "count": 2451,
      "max": [
        0.99935472011566162,
        0.99735993146896362,
        0.99861031770706177,
        1
      ],
      "min": [
        -0.99893897771835327,
        -0.9964556097984314,
        -0.99989783763885498,
        -1
      ],
      "type": "VEC4"
    },
    {
      "bufferView": 1,
      "componentType": 5126,
      "count": 2451,
      "max": [
        0.99104148149490356,
        0.99539059400558472
      ],
      "min": [
        0.0046093673445284367,
        0.0046093673445284367
      ],
      "type": "VEC2"
    },
    {
      "bufferView": 0,
      "componentType": 5125,
      "count": 10062,
      "max": [
        2450
      ],
      "min": [
        0
      ],
      "type": "SCALAR"
    },
    {
      "bufferView": 2,
      "byteOffset": 58824,
      "componentType": 5126,
      "count": 2451,
      "max": [
        52.618949890136719,
        216.17021179199219,
        -197.19792175292969
      ],
      "min": [
        -543.81878662109375,
        -195.74842834472656,
        -634.65655517578125
      ],
      "type": "VEC3"
    },
    {
      "bufferView": 2,
      "byteOffset": 88236,
      "componentType": 5126,
      "count": 2451,
      "max": [
        0.99520754814147949,
        0.99899148941040039,
        0.99950253963470459
      ],
      "min": [
        -0.99914133548736572,
        -0.99914097785949707,
        -0.99987494945526123
      ],
      "type": "VEC3"
    },
    {
      "bufferView": 3,
      "byteOffset": 39216,
      "componentType": 5126,
      "count": 2451,
      "max": [
        0.99924969673156738,
        0.99688190221786499,
        0.99752134084701538,
        1
      ],
      "min": [
        -0.9994317889213562,
        -0.99902206659317017,
        -0.99852198362350464,
        1
      ],
      "type": "VEC4"
    },
    {
      "bufferView": 1,
      "byteOffset": 19608,
      "componentType": 5126,
      "count": 2451,
      "max": [
        0.99707579612731934,
        0.98059296607971191
      ],
      "min": [
        0.0029241961892694235,
        0.0029241961892694235
      ],
      "type": "VEC2"
    },
    {
      "bufferView": 0,
      "byteOffset": 40248,
      "componentType": 5125,
      "count": 12756,
      "max": [
        2450
      ],
      "min": [
        0
      ],
      "type": "SCALAR"
    }
  ],
  "asset": {
    "extras": {
      "author": "mrrobot (https://sketchfab.com/mrrobot)",
      "license": "CC-BY-4.0 (http://creativecommons.org/licenses/by/4.0/)",
      "source": "https://sketchfab.com/models/a91dca72963242739dd3cc2e60637869",
      "title": "Mushroom tree"
    },
    "generator": "Sketchfab-3.19.3",
    "version": "2.0"
  },
  "bufferViews": [
    {
      "buffer": 0,
      "byteLength": 91272,
      "byteOffset": 0,
      "name": "floatBufferViews",
      "target": 34963
    },
    {
      "buffer": 0,
      "byteLength": 39216,
      "byteOffset": 91272,
      "byteStride": 8,
      "name": "floatBufferViews",
      "target": 34962
    },
    {
      "buffer": 0,
      "byteLength": 117648,
      "byteOffset": 130488,
      "byteStride": 12,
      "name": "floatBufferViews",
      "target": 34962
    },
    {
      "buffer": 0,
      "byteLength": 78432,
      "byteOffset": 248136,
      "byteStride": 16,
      "name": "floatBufferViews",
      "target": 34962
    }
  ],
  "buffers": [
    {
      "byteLength": 326568,
      "uri": "scene.bin"
    }
  ],
  "images": [
    {
      "uri": "textures/2.002_metallicRoughness.png"
    },
    {
      "uri": "textures/2.002_normal.jpg"
    },
    {
      "uri": "textures/2.002_baseColor.png"
    },
    {
      "uri": "textures/2.003_metallicRoughness.png"
    },
    {
      "uri": "textures/2.003_normal.jpg"
    },
    {
      "uri": "textures/2.003_baseColor.png"
    }
  ],
  "materials": [
    {
      "doubleSided": true,
      "emissiveFactor": [
        0,
        0,
        0
      ],
      "name": "2.002",
      "normalTexture": {
        "index": 1,
        "scale": 1,
        "texCoord": 0
      },
      "occlusionTexture": {
        "index": 0,
        "strength": 1,
        "texCoord": 0
      },
      "pbrMetallicRoughness": {
        "baseColorFactor": [
          1,
          1,
          1,
          1
        ],
        "baseColorTexture": {
          "index": 2,
          "texCoord": 0
        },
        "metallicFactor": 0,
        "metallicRoughnessTexture": {
          "index": 0,
          "texCoord": 0
        },
        "roughnessFactor": 1
      }
    },
    {
      "doubleSided": true,
      "emissiveFactor": [
        0,
        0,
        0
      ],
      "name": "2.003",
      "normalTexture": {
        "index": 4,
        "scale": 1,
        "texCoord": 0
      },
      "occlusionTexture": {
        "index": 3,
        "strength": 0.69073932930000004,
        "texCoord": 0
      },
      "pbrMetallicRoughness": {
        "baseColorFactor": [
          1,
          1,
          1,
          1
        ],
        "baseColorTexture": {
          "index": 5,
          "texCoord": 0
        },
        "metallicFactor": 0,
        "metallicRoughnessTexture": {
          "index": 3,
          "texCoord": 0
        },
        "roughnessFactor": 1
      }
    }
  ],
  "meshes": [
    {
      "name": "ZBrush_defualt_group.000_2.002_0",
      "primitives": [
        {
          "attributes": {
            "NORMAL": 1,
            "POSITION": 0,
            "TANGENT": 2,
            "TEXCOORD_0": 3
          },
          "indices": 4,
          "material": 0,
          "mode": 4
        }
      ]
    },
    {
      "name": "ZBrush_defualt_group.000_2.003_0",
      "primitives": [
        {
          "attributes": {
            "NORMAL": 6,
            "POSITION": 5,
            "TANGENT": 7,
            "TEXCOORD_0": 8
          },
          "indices": 9,
          "material": 1,
          "mode": 4
        }
      ]
    }
  ],
  "nodes": [
    {
      "children": [
        1
      ],
      "name": "RootNode (gltf orientation matrix)",
      "rotation": [
        -0.70710678118654746,
        -0,
        -0,
        0.70710678118654757
      ]
    },
    {
      "children": [
        2
      ],
      "name": "RootNode (model correction matrix)"
    },
    {
      "children": [
        3
      ],
      "matrix": [
        1,
        0,
        0,
        0,
        0,
        0,
        1,
        0,
        0,
        -1,
        0,
        0,
        0,
        0,
        0,
        1
      ],
      "name": "53b3d27ee043424ab012148507e477f0.fbx"
    },
    {
      "children": [
        4
      ],
      "name": "RootNode"
    },
    {
      "children": [
        5,
        6
      ],
      "matrix": [
        1,
        0,
        0,
        0,
        0,
        -1.6292067939183141e-07,
        0.99999999999998679,
        0,
        0,
        -0.99999999999998679,
        -1.6292067939183141e-07,
        0,
        0,
        0,
        0,
        1
      ],
      "name": "ZBrush_defualt_group.000"
    },
    {
      "mesh": 0,
      "name": "ZBrush_defualt_group.000_2.002_0"
    },
    {
      "mesh": 1,
      "name": "ZBrush_defualt_group.000_2.003_0"
    }
  ],
  "samplers": [
    {
      "magFilter": 9729,
      "minFilter": 9987,
      "wrapS": 10497,
      "wrapT": 10497
    },
    {
      "magFilter": 9729,
      "minFilter": 9729,
      "wrapS": 10497,
      "wrapT": 10497
    }
  ],
  "scene": 0,
  "scenes": [
    {
      "name": "OSG_Scene",
      "nodes": [
        0
      ]
    }
  ],
  "textures": [
    {
      "sampler": 0,
      "source": 0
    },
    {
      "sampler": 0,
      "source": 1
    },
    {
      "sampler": 1,
      "source": 2
    },
    {
      "sampler": 0,
      "source": 3
    },
    {
      "sampler": 0,
      "source": 4
    },
    {
      "sampler": 0,
      "source": 5
    }
  ]
}

